<?xml version="1.0" standalone="no"?>
<!DOCTYPE svg PUBLIC "-//W3C//DTD SVG 20010904//EN"
 "http://www.w3.org/TR/2001/REC-SVG-20010904/DTD/svg10.dtd">
<svg version="1.0" xmlns="http://www.w3.org/2000/svg"
 width="1536.000000pt" height="1536.000000pt" viewBox="0 0 1536.000000 1536.000000"
 preserveAspectRatio="xMidYMid meet">
<metadata>
Created by potrace 1.14, written by Peter Selinger 2001-2017
</metadata>
<g transform="translate(0.000000,1536.000000) scale(0.100000,-0.100000)"
fill="#000000" stroke="none">
<path d="M8435 14402 c-22 -9 -66 -31 -97 -48 -32 -18 -70 -35 -85 -37 -16 -3
-82 -21 -148 -42 -221 -67 -351 -98 -467 -110 -92 -10 -145 -26 -195 -57 l-48
-31 -105 16 c-196 31 -192 29 -221 72 -31 45 -40 48 -108 34 -54 -10 -60 -9
-200 39 -160 56 -207 60 -277 24 -33 -17 -202 -158 -344 -285 -199 -180 -204
-182 -310 -186 -49 -2 -78 3 -115 19 -88 38 -330 106 -388 109 -100 4 -238
-70 -524 -281 -309 -228 -650 -429 -938 -553 -22 -9 -49 -27 -60 -40 -11 -13
-83 -55 -160 -95 -376 -194 -443 -237 -561 -354 -87 -87 -152 -180 -258 -373
-37 -67 -81 -134 -98 -148 -17 -15 -90 -56 -162 -92 -72 -36 -144 -77 -160
-90 -53 -44 -142 -83 -193 -84 -46 0 -50 -3 -100 -61 l-52 -60 0 -81 c0 -82
-8 -126 -83 -427 -34 -141 -91 -306 -121 -358 -15 -26 -22 -58 -25 -121 -4
-88 -11 -103 -68 -166 -11 -11 -43 -48 -72 -83 -51 -58 -57 -62 -97 -62 -52 0
-70 -16 -85 -71 -13 -46 -12 -46 -152 -161 -168 -139 -171 -149 -104 -448 100
-449 96 -425 84 -468 -21 -75 -86 -172 -116 -172 -11 0 -26 -13 -166 -144
-139 -130 -156 -162 -159 -299 -2 -83 8 -230 18 -282 2 -11 7 -47 10 -80 3
-33 10 -87 15 -120 8 -57 21 -198 24 -257 1 -20 -8 -32 -34 -50 -44 -29 -78
-97 -84 -169 -8 -93 -16 -263 -21 -458 -3 -102 -7 -207 -10 -235 -3 -28 -7
-71 -9 -96 -18 -181 -75 -353 -142 -427 -121 -131 -446 -150 -626 -36 l-38 23
0 -199 0 -199 48 -16 c159 -53 360 -57 531 -9 173 48 280 135 366 294 30 55
35 60 35 35 0 -15 13 -67 29 -115 37 -109 61 -156 195 -370 43 -68 82 -136 86
-152 5 -16 7 -64 5 -107 -6 -112 -6 -224 -2 -329 4 -85 3 -95 -19 -125 -25
-33 -31 -67 -15 -83 5 -6 12 -24 14 -42 8 -48 30 -73 111 -123 40 -25 101 -70
136 -100 207 -183 358 -333 426 -421 59 -79 97 -113 149 -136 49 -21 48 -21
81 -108 15 -38 32 -83 39 -100 32 -74 36 -98 20 -115 -8 -9 -17 -30 -21 -47
-5 -26 0 -36 35 -73 23 -24 42 -52 42 -62 1 -10 2 -21 3 -25 2 -5 6 -30 10
-58 5 -27 14 -76 21 -107 7 -32 11 -58 9 -58 -2 0 5 -18 16 -40 41 -80 73 -94
622 -265 130 -40 149 -49 165 -75 9 -17 20 -30 24 -30 15 0 59 -105 59 -139 1
-52 74 -342 95 -376 31 -50 68 -85 126 -121 61 -37 234 -116 369 -169 161 -62
469 -208 600 -282 217 -124 272 -158 387 -242 15 -11 43 -23 61 -26 18 -3 124
-60 235 -126 435 -261 535 -291 927 -283 153 3 224 1 245 -8 17 -6 88 -47 159
-90 71 -44 146 -85 168 -92 63 -22 148 -79 154 -103 8 -30 34 -51 73 -58 19
-3 38 -8 43 -11 5 -3 29 -6 53 -6 34 0 66 12 138 51 52 28 96 48 99 46 3 -3
25 1 49 9 262 86 465 135 634 150 46 4 76 15 127 48 54 34 54 34 248 -1 60
-10 106 -24 108 -31 3 -7 17 -26 32 -43 l27 -31 58 14 57 14 154 -53 c224 -78
232 -75 484 144 74 65 137 121 140 124 3 3 39 35 80 71 41 35 77 68 80 72 15
20 81 35 150 33 54 -1 100 -11 165 -33 262 -90 353 -106 437 -76 67 24 238
131 416 262 92 67 227 161 300 209 l132 86 -45 82 c-25 46 -65 116 -90 156
-47 76 -80 164 -90 239 -10 76 -33 152 -64 215 -36 74 -259 389 -390 548 -161
199 -196 260 -241 429 -12 43 -23 85 -24 95 -30 151 -91 328 -156 448 -18 33
-48 89 -68 125 -19 36 -48 80 -63 98 -19 22 -29 43 -29 65 l1 32 41 -45 c236
-260 367 -424 466 -587 68 -109 166 -230 234 -285 108 -88 582 -436 634 -466
61 -34 342 -254 481 -377 43 -38 130 -122 193 -186 l115 -118 66 8 c84 11 113
31 149 101 16 31 41 65 55 74 50 33 178 161 220 221 23 33 79 125 125 205 45
80 92 159 105 175 14 19 63 50 131 84 60 30 147 78 194 106 99 61 136 80 246
130 105 47 115 65 119 193 1 53 7 109 13 123 6 15 14 44 18 65 3 22 13 64 21
94 8 30 16 62 18 70 35 153 73 272 125 390 26 60 33 89 35 151 2 75 3 79 46
131 24 29 58 69 76 88 17 19 40 45 51 57 14 17 30 23 61 23 50 0 77 24 87 75
5 30 22 49 96 111 49 41 100 81 112 90 74 48 100 153 72 284 -9 41 -26 118
-37 170 -11 52 -22 102 -24 110 -41 181 -55 247 -55 270 0 66 54 159 120 207
22 17 81 68 132 114 187 171 192 179 194 359 1 69 -2 152 -6 185 -5 33 -11 85
-14 116 -4 31 -8 66 -11 77 -2 12 -7 52 -10 89 -4 37 -10 72 -13 77 -11 19
106 -4 198 -37 131 -49 509 -183 603 -215 42 -14 77 -29 77 -33 0 -5 -57 -24
-106 -35 -65 -13 -289 -81 -351 -106 -200 -80 -333 -212 -385 -381 -28 -92
-22 -223 15 -313 50 -124 158 -249 271 -315 108 -62 268 -96 468 -98 l118 -2
0 131 0 130 -52 1 c-156 4 -278 33 -345 85 -126 96 -175 225 -126 334 49 109
147 169 386 236 l137 38 0 301 0 300 -88 32 c-338 123 -554 198 -599 208 -29
7 -96 11 -148 10 l-96 -3 6 271 c3 150 6 310 6 357 0 47 0 153 1 235 3 450 1
505 -17 585 -3 14 -8 35 -11 47 -9 43 -57 168 -81 213 -14 25 -70 118 -125
207 l-100 163 6 151 c3 84 7 154 9 156 3 2 -1 31 -8 64 -7 34 -11 68 -10 77 2
10 4 33 4 53 1 21 9 46 21 59 23 27 24 36 8 110 -16 68 -55 110 -155 164 -39
21 -77 49 -84 63 -8 14 -28 35 -46 48 -84 57 -314 284 -415 409 -47 59 -78 87
-122 110 -57 31 -60 35 -87 106 -70 182 -71 184 -50 231 22 49 19 61 -25 111
-19 21 -36 48 -38 60 -9 39 -25 131 -31 173 -12 86 -27 120 -74 166 -42 42
-58 50 -181 89 -74 23 -146 46 -160 50 -14 5 -72 23 -130 40 -58 17 -121 36
-140 42 -59 18 -129 60 -153 92 -39 51 -46 71 -72 193 -14 65 -28 127 -31 138
-3 11 -10 44 -15 73 -12 70 -49 141 -96 186 -46 44 -212 126 -463 230 -332
138 -641 299 -880 459 -63 42 -125 77 -137 77 -12 0 -97 46 -190 101 -211 128
-250 150 -343 198 -78 40 -202 85 -261 95 -19 3 -45 9 -59 12 -14 4 -146 7
-295 8 l-270 1 -120 74 c-66 41 -127 80 -135 86 -8 7 -36 19 -62 28 -67 22
-157 84 -164 113 -8 31 -23 42 -70 50 -21 3 -42 8 -45 10 -20 12 -70 10 -104
-4z m-1830 -252 c-2 -4 -17 -10 -32 -13 -16 -3 -37 -9 -48 -13 -18 -7 -19 -6
-5 10 8 10 23 22 34 26 23 8 58 2 51 -10z m-1000 -390 c5 -8 -23 -14 -125 -24
-25 -2 -94 -18 -154 -35 -60 -17 -123 -31 -139 -31 l-30 0 25 19 c50 40 111
64 171 69 34 2 63 5 64 6 7 6 184 3 188 -4z m2669 -29 c27 -1 47 -4 43 -7 -7
-7 -91 -7 -126 0 -37 8 -37 15 1 11 18 -2 55 -4 82 -4z m-74 -206 c69 -3 136
-7 150 -9 14 -3 50 -7 80 -10 30 -4 69 -8 85 -11 17 -2 50 -7 75 -10 42 -5
121 -14 165 -20 11 -1 32 -3 46 -4 17 -1 30 -9 37 -26 23 -50 65 -59 357 -80
112 -8 124 -11 270 -60 72 -24 225 -67 340 -95 780 -191 721 -172 965 -308
273 -152 444 -279 595 -443 23 -24 121 -147 220 -274 98 -126 196 -250 217
-275 70 -80 165 -155 255 -200 69 -34 105 -61 168 -124 44 -45 89 -92 100
-106 11 -14 34 -43 52 -65 45 -59 682 -1016 731 -1101 77 -133 180 -353 309
-661 7 -18 -64 -48 -306 -128 -87 -29 -139 -41 -146 -35 -16 14 -125 190 -178
290 -25 47 -75 160 -112 253 -63 161 -127 293 -221 459 -65 115 -120 215 -189
343 -26 50 -51 95 -55 100 -8 10 -41 71 -103 187 -20 37 -114 183 -209 325
-192 289 -270 376 -418 474 -47 31 -145 95 -217 143 -171 112 -232 162 -373
305 -123 125 -137 135 -335 216 -49 20 -156 66 -237 101 -80 35 -149 64 -153
64 -13 0 -162 75 -190 95 -106 79 -205 108 -502 150 -21 3 -47 7 -58 10 -11 2
-42 7 -70 10 -27 4 -75 10 -106 14 -61 8 -244 7 -299 -2 -19 -3 -66 -9 -105
-12 -38 -4 -86 -9 -105 -11 -49 -5 -327 -5 -375 0 -22 3 -69 8 -105 11 -117
12 -160 18 -270 40 -53 10 -129 15 -304 20 -99 3 -287 8 -416 12 -397 12 -928
6 -1090 -13 -175 -20 -278 -54 -510 -169 -136 -67 -331 -149 -382 -159 -13 -3
-47 -12 -76 -20 -29 -8 -55 -14 -57 -14 -28 -1 -131 -27 -173 -44 -30 -12
-109 -60 -175 -108 -67 -47 -167 -117 -222 -155 -55 -38 -130 -92 -167 -120
-38 -28 -119 -78 -180 -110 -100 -52 -125 -72 -218 -165 -218 -219 -350 -398
-456 -617 -177 -370 -244 -475 -478 -755 -85 -103 -129 -168 -426 -628 -206
-318 -297 -475 -473 -811 -57 -109 -135 -299 -122 -299 2 0 -1 -15 -6 -32 -11
-39 -19 -114 -24 -228 -2 -47 -4 -91 -4 -97 -1 -7 -34 -29 -73 -49 -40 -20
-138 -77 -217 -125 -79 -49 -146 -88 -148 -86 -5 6 46 152 82 237 18 41 70
158 115 260 135 304 163 402 153 544 -11 166 47 333 245 706 52 96 125 236
164 310 289 553 373 694 533 889 8 9 61 77 119 152 102 131 107 136 148 142
53 7 75 30 212 224 83 116 114 151 195 216 53 44 255 236 450 428 380 376 341
344 611 498 215 122 432 210 605 245 85 17 324 55 390 62 22 2 56 6 75 8 19 3
60 8 90 11 50 5 92 10 160 20 14 2 45 7 70 10 107 15 213 57 300 120 41 29
178 78 257 91 15 2 37 6 48 8 19 4 52 8 182 21 29 2 119 7 200 11 82 3 180 7
218 9 39 2 147 7 240 10 94 4 184 9 200 10 17 2 113 6 215 10 102 4 187 9 188
11 2 1 9 1 15 -1 7 -2 68 -6 137 -10z m-272 -586 c20 -4 59 -10 86 -14 27 -3
51 -7 55 -9 3 -2 33 -6 66 -10 33 -3 70 -8 83 -11 84 -16 398 -23 523 -11 99
9 172 17 199 22 31 5 287 6 315 0 11 -2 47 -7 80 -11 32 -4 68 -9 80 -11 11
-3 31 -7 45 -9 72 -12 108 -23 139 -44 13 -8 29 -16 35 -17 6 -1 56 -11 111
-23 103 -22 155 -45 310 -131 50 -28 135 -64 190 -81 131 -41 364 -134 409
-165 20 -14 59 -59 88 -102 98 -146 269 -294 523 -453 202 -127 308 -222 407
-367 29 -43 83 -121 119 -173 93 -131 205 -309 358 -568 72 -123 131 -224 131
-226 0 -1 43 -74 97 -161 103 -170 146 -257 189 -379 31 -89 139 -309 213
-432 39 -66 71 -122 71 -125 0 -13 -162 -100 -170 -92 -4 5 -18 34 -31 64 -24
58 -56 116 -132 240 -25 41 -68 135 -96 208 -87 230 -202 426 -326 557 -37 39
-117 144 -178 235 -174 259 -233 333 -419 520 -95 96 -207 220 -248 275 -41
55 -80 105 -86 110 -48 45 -146 183 -198 281 -52 96 -114 150 -281 244 -60 34
-171 100 -245 146 -163 100 -284 159 -445 214 -114 39 -309 90 -405 105 -25 4
-63 14 -85 23 -22 8 -60 16 -85 17 -25 1 -70 7 -100 13 -30 6 -75 14 -100 17
-25 3 -56 8 -70 10 -14 2 -45 7 -70 10 -25 4 -56 8 -70 10 -14 2 -43 7 -65 10
-43 5 -88 13 -120 19 -11 3 -47 8 -80 12 -33 3 -63 8 -67 10 -4 3 -103 7 -220
10 -152 4 -242 11 -313 25 -142 28 -217 34 -415 33 -128 -1 -191 -5 -235 -17
-33 -9 -85 -19 -115 -22 -30 -3 -73 -8 -95 -10 -22 -2 -92 -7 -155 -10 -213
-10 -283 -17 -425 -42 -86 -15 -138 -27 -307 -72 -42 -11 -96 -22 -120 -26
-90 -12 -324 -46 -353 -51 -16 -3 -98 -7 -182 -9 -251 -5 -301 -18 -488 -125
-66 -37 -180 -98 -254 -134 -150 -74 -294 -165 -397 -251 -167 -140 -533 -536
-699 -758 -42 -56 -111 -141 -153 -189 -67 -76 -81 -87 -109 -88 -37 0 -37 0
-22 -33 9 -21 5 -34 -27 -93 -52 -96 -124 -198 -190 -269 -110 -117 -290 -403
-314 -498 -6 -23 -14 -49 -17 -57 -4 -8 -7 -17 -8 -20 -11 -32 -44 -102 -146
-304 -136 -268 -178 -369 -215 -518 -32 -130 -78 -268 -111 -333 -14 -27 -41
-90 -60 -138 -51 -133 -104 -243 -157 -327 -87 -139 -89 -154 -99 -771 -1 -53
-6 -85 -12 -82 -21 8 -68 86 -80 132 -11 44 -12 167 -1 217 6 28 16 113 25
201 11 112 3 212 -23 310 -8 28 -12 53 -11 55 2 2 6 44 9 93 25 382 23 376
200 738 81 166 189 358 355 635 307 512 384 630 473 723 104 109 282 382 368
564 112 237 131 273 180 347 78 116 208 267 266 307 28 20 93 79 145 132 73
74 111 104 169 133 98 50 222 133 285 192 68 63 260 207 313 234 30 14 69 23
120 26 216 13 391 68 727 229 216 104 295 127 475 140 47 4 96 8 110 10 14 2
70 6 125 10 55 4 102 9 104 11 8 8 1293 1 1329 -7z m3888 -142 c90 -39 185
-139 243 -254 17 -35 29 -63 26 -63 -12 0 -55 45 -64 69 -7 14 -59 71 -117
126 -92 86 -135 135 -120 135 2 0 17 -6 32 -13z m-3921 -182 c93 -8 163 -18
235 -35 52 -12 129 -14 325 -6 77 2 165 1 195 -4 63 -10 241 -35 315 -45 28
-3 64 -8 81 -10 26 -4 120 -19 259 -42 17 -3 32 -7 35 -9 4 -5 -33 -76 -103
-197 l-39 -69 -46 6 c-51 6 -192 25 -232 31 -14 2 -50 7 -80 10 -30 3 -66 8
-80 10 -43 7 -194 27 -225 30 -16 2 -64 9 -105 15 -41 6 -93 13 -115 16 -22 2
-66 13 -97 24 -31 11 -71 22 -89 25 -18 3 -35 7 -38 9 -6 4 -71 11 -176 21
-27 2 -97 7 -155 10 -107 5 -236 14 -300 21 -58 6 -220 5 -259 -2 -44 -7 -125
-31 -166 -49 -16 -7 -77 -33 -135 -58 -116 -50 -215 -79 -335 -97 -43 -7 -178
-46 -299 -87 -122 -41 -225 -75 -231 -77 -5 -1 -174 -57 -375 -123 -270 -90
-391 -126 -465 -136 -152 -23 -204 -47 -320 -148 -16 -14 -77 -67 -135 -116
-120 -104 -256 -242 -319 -325 l-43 -58 -119 81 c-65 44 -119 85 -119 90 0 5
19 31 43 57 23 25 47 52 52 58 217 242 279 303 445 441 107 90 147 116 285
185 88 44 237 120 331 169 192 100 244 116 394 123 58 3 116 8 130 11 14 3 39
7 55 9 17 2 57 9 90 15 68 12 87 15 239 36 67 9 149 29 210 51 133 47 239 82
268 88 150 31 245 44 331 45 146 2 371 12 376 17 5 4 436 -4 506 -11z m1645
-190 c228 -33 485 -122 665 -230 590 -354 565 -335 659 -480 39 -61 98 -136
150 -190 15 -16 72 -84 125 -150 111 -139 133 -161 261 -263 184 -147 274
-248 404 -454 33 -51 106 -163 162 -248 118 -178 257 -442 308 -580 49 -136
52 -142 142 -280 95 -146 137 -222 126 -231 -6 -6 -58 -19 -172 -44 -8 -2 -35
-8 -60 -14 -25 -6 -48 -11 -51 -11 -5 0 -69 133 -69 143 0 2 36 14 80 27 44
13 80 27 80 31 0 6 -29 1 -147 -26 -18 -4 -26 2 -41 32 -15 28 -62 203 -62
228 0 1 17 6 37 10 34 6 36 8 20 20 -10 7 -26 11 -35 9 -9 -2 -22 -1 -29 3 -6
5 -85 155 -175 334 -91 180 -181 349 -201 376 -50 69 -102 114 -241 213 -111
79 -233 189 -316 286 -20 22 -60 62 -90 88 -30 26 -64 55 -75 65 -11 10 -72
62 -135 115 -63 54 -126 107 -140 120 -14 12 -72 60 -130 106 -94 75 -286 237
-316 265 -7 6 -25 23 -40 36 -70 61 -70 60 -30 129 41 70 66 125 66 147 0 26
-52 -15 -104 -83 l-48 -64 -50 51 c-49 50 -129 95 -213 120 -43 13 -44 14 -39
49 l5 35 -23 -28 -23 -27 -204 60 c-113 33 -206 62 -206 63 -2 2 65 208 78
241 6 15 13 17 40 12 17 -4 43 -9 57 -11z m-2058 -109 c42 -6 193 -16 323 -21
171 -7 247 -16 430 -55 84 -17 114 -22 220 -36 22 -3 47 -7 55 -9 8 -2 37 -6
63 -9 27 -3 52 -8 55 -10 4 -2 32 -7 62 -11 30 -4 64 -8 75 -10 11 -2 54 -9
95 -15 41 -6 86 -13 99 -15 13 -2 45 -7 70 -11 25 -3 62 -10 83 -15 l36 -9
-69 -139 c-62 -125 -87 -159 -107 -147 -4 2 -43 7 -87 11 -44 3 -89 8 -100 10
-11 2 -42 7 -70 10 -106 13 -121 15 -145 20 -14 2 -45 7 -70 10 -79 11 -333
55 -395 70 -33 8 -98 23 -145 34 -47 11 -105 22 -130 26 -25 3 -52 8 -60 10
-8 2 -40 7 -70 10 -30 3 -66 8 -80 10 -167 25 -237 22 -395 -14 -157 -36 -192
-41 -320 -46 -116 -4 -143 -13 -332 -110 -70 -36 -208 -95 -306 -130 -200 -71
-245 -95 -457 -235 -210 -139 -199 -135 -470 -214 -188 -55 -366 -163 -558
-336 -40 -36 -77 -65 -81 -65 -13 0 -231 198 -231 210 0 27 154 170 355 331
225 180 286 218 365 229 123 17 308 77 495 160 269 120 724 279 899 315 138
27 279 69 392 116 161 66 184 74 237 83 48 7 206 6 269 -3z m2040 -328 c93
-35 166 -68 164 -73 -6 -18 -187 -270 -195 -273 -8 -3 -298 112 -308 121 -4 5
20 62 102 241 32 69 10 70 237 -16z m-1942 -93 c101 -12 270 -40 340 -55 25
-6 54 -12 65 -14 11 -3 63 -14 115 -25 91 -19 290 -54 375 -65 22 -2 69 -9
105 -15 36 -5 90 -13 120 -16 30 -3 62 -7 70 -10 8 -2 38 -6 65 -10 59 -7 109
-15 111 -18 0 -1 -14 -47 -32 -102 -18 -55 -40 -126 -49 -157 -18 -64 -9 -62
-104 -21 -64 29 -269 92 -456 142 -105 27 -235 64 -290 81 -197 62 -277 75
-465 74 -104 0 -246 -9 -296 -18 -10 -2 -41 -7 -69 -10 -79 -11 -129 -19 -240
-40 -31 -5 -98 -18 -124 -22 -44 -9 -136 -63 -175 -103 -21 -23 -42 -41 -46
-41 -4 0 -110 -49 -235 -110 -124 -60 -228 -110 -230 -110 -1 0 -54 -24 -116
-54 -63 -29 -159 -73 -214 -97 -163 -71 -211 -104 -340 -233 -67 -67 -145
-138 -175 -159 -30 -20 -91 -62 -135 -93 -44 -31 -84 -58 -90 -61 -6 -2 -27
12 -46 30 -68 68 -186 192 -193 204 -9 15 30 51 162 147 183 135 287 189 430
226 231 58 360 127 530 283 117 106 248 184 434 258 57 22 177 72 268 109 195
81 168 76 440 95 187 13 235 17 238 20 6 5 189 -2 252 -10z m5349 -32 c19 -40
6 -37 -29 7 -31 39 -31 40 -7 29 14 -6 30 -23 36 -36z m-3107 18 c74 -25 129
-61 166 -109 l32 -39 -116 -154 c-64 -85 -121 -153 -127 -151 -6 2 -23 15 -37
29 -14 14 -52 46 -85 71 -33 25 -64 49 -69 53 -5 4 11 43 34 86 24 43 58 107
77 142 35 68 51 91 63 91 4 0 32 -9 62 -19z m341 -282 c39 -34 133 -104 207
-157 127 -90 282 -205 306 -227 6 -5 88 -72 182 -148 94 -76 197 -168 229
-205 84 -97 192 -201 257 -247 146 -103 226 -167 264 -212 47 -55 378 -702
365 -713 -4 -3 -33 -12 -63 -20 -30 -7 -95 -26 -145 -42 -49 -15 -90 -28 -91
-28 -1 0 -39 93 -84 208 -46 114 -102 238 -124 276 -23 39 -86 115 -144 175
-57 58 -132 149 -167 202 -35 52 -81 111 -103 131 -41 37 -133 99 -164 111
-35 13 -156 98 -258 181 -149 122 -205 160 -340 227 -65 32 -121 59 -125 59
-3 0 -50 22 -105 49 -117 59 -213 128 -202 145 26 44 217 296 224 296 4 0 41
-27 81 -61z m-930 -21 c85 -34 117 -49 155 -74 2 -1 -39 -70 -91 -152 l-93
-150 -89 39 c-49 22 -90 41 -91 42 -2 1 11 47 27 102 16 55 39 130 50 168 11
37 22 67 25 67 3 0 51 -19 107 -42z m-1633 -83 c233 -6 249 -7 340 -35 84 -25
197 -56 240 -65 8 -2 76 -15 150 -30 240 -46 264 -53 365 -96 55 -23 102 -43
103 -45 2 -1 -21 -54 -51 -118 l-55 -115 -74 28 c-65 25 -136 46 -233 67 -16
3 -111 8 -210 9 -175 3 -335 12 -365 20 -8 2 -41 6 -72 9 -31 3 -87 10 -125
16 -93 15 -713 15 -790 0 -83 -16 -142 -36 -277 -92 -65 -28 -180 -71 -255
-98 -181 -63 -200 -71 -278 -124 -72 -47 -130 -98 -176 -156 -30 -36 -203
-220 -368 -392 -52 -54 -98 -98 -103 -98 -9 0 -96 89 -177 182 l-50 57 28 18
c28 18 43 29 66 48 7 6 59 42 115 80 60 40 138 105 185 154 45 46 91 92 102
103 40 40 109 81 228 138 430 203 737 362 812 419 126 96 162 106 435 117 91
3 166 7 167 8 1 1 19 0 40 -1 21 -2 148 -5 283 -8z m1942 -77 c25 -18 68 -54
96 -79 l51 -46 -60 -93 -60 -92 -37 7 c-20 4 -48 9 -62 11 -14 3 -43 10 -65
16 -22 5 -48 12 -58 14 -58 11 -59 7 37 154 50 77 96 140 102 140 6 0 31 -15
56 -32z m-5333 -242 l104 -104 -99 -126 c-58 -73 -104 -123 -112 -121 -21 8
-232 147 -232 154 0 3 48 67 106 141 58 74 108 141 111 148 3 6 8 12 12 12 3
0 53 -47 110 -104z m-1600 22 c-63 -90 -79 -110 -79 -101 0 16 80 133 92 133
5 0 -1 -15 -13 -32z m7351 -96 c109 -50 104 -48 235 -87 186 -57 242 -91 662
-401 l151 -113 104 -146 c56 -80 129 -183 161 -228 73 -103 113 -180 188 -369
86 -215 87 -198 -17 -230 -48 -15 -91 -25 -95 -23 -3 3 -19 39 -34 82 -37 105
-65 158 -148 283 -112 169 -283 379 -404 497 -58 57 -137 103 -178 103 -40 0
-75 21 -523 320 -303 201 -420 284 -415 294 4 7 30 42 57 78 l49 66 66 -45
c36 -25 100 -62 141 -81z m-850 -7 l28 -15 -25 -51 c-19 -37 -23 -56 -16 -67
18 -29 31 -23 75 30 l43 54 75 -18 c41 -9 103 -22 138 -29 34 -6 64 -14 66
-18 2 -3 -9 -33 -25 -65 -16 -32 -28 -61 -25 -63 2 -2 25 21 51 52 36 42 52
54 67 49 10 -3 73 -41 141 -84 570 -367 617 -395 827 -493 110 -51 138 -78
251 -242 73 -106 199 -310 199 -322 0 -3 32 -60 72 -127 40 -66 87 -148 104
-180 l32 -60 -106 -42 c-162 -63 -148 -62 -165 -7 -15 48 -25 86 -34 133 -14
75 -121 279 -188 358 -20 23 -67 60 -103 82 -37 22 -96 67 -132 101 -174 164
-421 338 -614 433 -61 30 -266 116 -456 192 -190 75 -367 147 -395 159 -27 12
-69 30 -93 40 -50 21 -50 18 13 136 25 45 45 85 45 89 0 3 5 11 11 17 12 12
69 -6 139 -42z m-1495 -57 c11 -3 47 -9 80 -12 33 -4 71 -9 85 -11 14 -2 45
-7 70 -10 25 -4 57 -8 72 -11 14 -2 82 -10 150 -18 163 -20 196 -27 375 -88
l152 -51 -62 -117 c-45 -85 -66 -116 -77 -113 -8 3 -38 15 -66 28 -80 37 -208
74 -312 91 -136 23 -445 23 -568 0 -10 -2 -46 -7 -79 -10 -33 -4 -85 -11 -115
-16 -30 -5 -75 -11 -100 -14 -102 -13 -224 -67 -300 -133 -105 -91 -187 -132
-360 -178 -188 -50 -261 -82 -385 -166 -61 -42 -175 -109 -254 -149 -113 -58
-156 -86 -203 -133 l-60 -60 -36 39 c-19 22 -59 65 -89 97 -41 45 -51 62 -44
75 19 35 76 100 189 217 64 66 153 160 197 210 185 207 217 229 423 300 154
53 271 102 370 155 102 55 160 70 297 76 66 4 121 7 123 8 5 5 508 -1 527 -6z
m-3005 -278 c0 -9 -155 -203 -165 -207 -9 -3 -246 186 -249 199 -1 5 90 118
159 195 l40 46 107 -114 c60 -63 108 -116 108 -119z m-717 141 c29 -27 76 -71
106 -98 l54 -50 -43 -56 c-23 -32 -44 -57 -46 -57 -4 0 -106 108 -168 177
l-38 42 37 46 c21 25 39 45 42 45 3 0 28 -22 56 -49z m-127 -164 c23 -29 65
-80 94 -115 l53 -63 -104 -102 c-143 -140 -172 -176 -364 -457 -92 -135 -173
-252 -180 -260 -16 -20 -63 -129 -69 -160 -3 -14 -7 -36 -10 -50 -13 -59 -16
-79 -21 -147 -3 -40 -8 -80 -10 -90 -13 -70 -51 -215 -81 -310 -35 -111 -161
-688 -188 -858 -3 -16 -7 -43 -10 -60 -3 -16 -8 -50 -11 -75 -19 -136 -54
-263 -103 -375 -25 -60 -35 -97 -37 -147 -2 -36 -6 -72 -10 -79 -10 -15 -191
-6 -255 13 l-45 14 1 49 c0 28 4 95 8 150 4 55 9 194 11 309 2 115 7 223 11
240 7 33 31 85 82 177 30 53 80 175 87 212 2 10 28 75 58 145 77 181 102 264
122 411 22 159 106 383 204 543 32 53 93 163 136 244 96 186 295 485 368 555
58 57 119 145 163 238 26 56 50 101 54 100 3 0 23 -23 46 -52z m5066 -8 c285
-126 612 -238 888 -303 280 -66 536 -219 776 -464 95 -96 118 -126 154 -200
74 -152 107 -237 125 -318 10 -43 24 -95 30 -115 l13 -36 -101 -60 c-56 -33
-103 -59 -104 -58 -2 1 -7 26 -13 55 -15 79 -54 148 -176 311 -143 191 -201
258 -300 348 -180 162 -321 236 -589 310 -206 57 -336 102 -660 229 -290 114
-302 120 -310 132 -5 8 19 50 50 86 6 6 32 37 58 68 27 31 53 56 57 56 5 0 51
-19 102 -41z m-4594 -141 c59 -50 116 -99 126 -109 19 -18 19 -19 -35 -81 -29
-35 -63 -74 -75 -86 l-21 -24 -97 127 c-53 69 -99 132 -102 139 -4 12 79 126
92 126 3 0 54 -41 112 -92z m545 -13 c54 -57 132 -154 126 -158 -2 -2 -31 -26
-64 -53 -82 -69 -80 -69 -122 -37 -109 80 -174 136 -166 142 5 3 40 45 77 93
78 99 68 98 149 13z m3210 15 c119 -18 120 -18 214 -51 94 -33 152 -60 195
-91 23 -16 26 -22 17 -46 -18 -52 -77 -304 -69 -295 10 10 80 177 106 251 10
29 23 51 29 48 5 -2 75 -29 155 -61 80 -31 154 -60 165 -65 49 -21 346 -135
407 -155 73 -26 192 -51 278 -60 134 -13 159 -17 229 -36 147 -39 274 -118
422 -261 199 -192 344 -424 374 -595 l5 -33 -167 5 c-93 2 -180 4 -194 4 -20
1 -31 10 -45 38 -94 184 -201 307 -410 472 -26 21 -211 134 -253 155 -43 22
-115 48 -172 63 -13 3 -123 7 -244 8 -229 2 -244 4 -341 29 -148 39 -350 131
-348 160 2 13 -1 14 -11 6 -10 -8 -33 -1 -92 26 -270 126 -263 125 -578 110
-360 -17 -382 -24 -700 -218 -77 -47 -201 -117 -275 -155 -74 -39 -184 -100
-244 -136 -157 -95 -250 -130 -429 -162 l-88 -16 -22 28 c-12 15 -52 66 -89
114 l-67 86 27 39 c45 67 63 81 205 153 75 39 186 102 245 139 150 97 169 105
362 161 204 59 274 90 357 159 104 87 220 140 338 156 22 3 63 8 90 11 28 4
61 8 75 10 14 2 61 7 105 10 44 4 81 8 82 9 8 7 292 -4 356 -14z m-3957 -185
c32 -38 77 -93 101 -121 l43 -51 -68 -71 c-37 -39 -87 -93 -112 -119 -25 -26
-82 -91 -126 -143 -187 -221 -238 -305 -289 -485 -17 -57 -55 -150 -88 -215
-73 -140 -84 -185 -87 -337 -1 -114 -3 -134 -15 -233 -14 -110 -42 -213 -127
-470 -50 -151 -95 -282 -99 -290 -4 -8 -20 -44 -35 -80 -63 -147 -136 -264
-199 -315 -23 -19 -45 -35 -50 -35 -14 0 1 69 40 179 28 79 61 223 70 306 3
28 7 68 10 90 2 22 7 67 10 100 4 33 8 71 10 85 2 14 7 45 10 70 3 25 15 95
25 155 11 61 22 128 26 150 3 22 9 58 14 80 5 22 12 56 15 75 10 63 56 223 85
300 39 101 54 167 65 295 21 228 53 311 186 486 32 43 97 137 145 210 48 74
114 169 147 213 64 84 217 248 228 244 3 -2 33 -34 65 -73z m527 -82 c34 -26
68 -53 75 -60 7 -7 21 -17 30 -23 15 -8 1 -25 -93 -117 -61 -60 -157 -151
-214 -203 -150 -139 -156 -145 -206 -205 -63 -78 -103 -142 -172 -280 -84
-169 -216 -510 -225 -585 -2 -21 -16 -30 -81 -57 -43 -18 -104 -46 -134 -63
l-55 -32 6 70 c4 38 8 78 10 89 2 11 7 46 10 79 11 98 23 130 143 369 107 213
170 325 197 350 6 6 25 28 41 51 83 113 365 424 386 424 4 0 15 -7 24 -16 22
-22 31 -10 15 21 -14 26 -6 39 62 116 13 14 41 47 63 72 22 26 44 47 48 47 5
0 36 -21 70 -47z m8820 -78 c20 -41 33 -75 29 -75 -10 0 -84 150 -74 150 4 0
24 -34 45 -75z m-8326 8 c28 -32 85 -94 127 -138 l75 -80 -41 -37 c-23 -21
-46 -38 -51 -38 -5 0 -61 46 -125 103 -64 57 -127 112 -139 122 -13 11 -23 23
-23 27 0 8 111 98 121 98 3 0 29 -26 56 -57z m-178 -177 c36 -30 95 -82 131
-115 l65 -61 -30 -26 c-16 -15 -48 -43 -70 -63 -81 -73 -169 -143 -206 -161
-20 -11 -96 -40 -167 -64 -238 -81 -240 -83 -366 -391 -48 -115 -88 -211 -90
-212 -4 -4 -247 -103 -253 -103 -10 0 166 330 227 426 35 54 100 160 144 234
61 101 97 150 146 195 36 33 139 135 230 227 91 92 167 168 169 168 2 0 34
-24 70 -54z m3036 -20 c77 -21 96 -29 235 -94 182 -86 326 -151 382 -173 145
-57 339 -78 515 -55 94 12 190 13 253 2 221 -40 521 -251 678 -479 81 -117 99
-106 -175 -106 -131 -1 -248 -3 -260 -5 -17 -4 -51 24 -160 133 -103 103 -152
145 -193 164 -55 25 -143 51 -211 61 -20 3 -42 8 -50 10 -8 3 -30 7 -49 10
-142 22 -373 103 -590 208 -306 148 -434 191 -566 190 -46 0 -107 -7 -140 -17
-47 -13 -296 -135 -339 -165 -5 -4 -50 -29 -100 -55 -320 -171 -355 -194 -452
-296 -78 -82 -150 -128 -279 -179 -160 -63 -165 -65 -344 -172 -261 -156 -352
-217 -393 -261 -34 -37 -139 -201 -235 -366 -49 -84 -73 -172 -77 -281 -4
-100 -13 -118 -59 -121 -12 -1 -30 -3 -41 -4 -56 -9 -115 -11 -123 -6 -17 11
-31 116 -27 206 7 175 45 267 234 555 49 76 352 502 368 518 12 13 35 2 88
-41 69 -56 117 -71 60 -18 -17 15 -47 45 -68 68 l-38 40 30 30 c16 17 46 38
65 47 l35 17 125 -128 c69 -70 128 -124 132 -120 4 4 -2 21 -14 37 -12 16 -22
32 -22 35 0 3 -11 24 -26 46 -14 22 -34 56 -45 75 -11 20 -27 46 -35 60 -9 13
-14 24 -12 24 2 0 46 9 98 21 52 11 102 22 110 24 35 7 134 46 163 63 18 10
73 44 122 74 93 57 298 165 395 207 121 53 171 76 303 138 76 35 148 66 160
69 12 2 47 11 77 18 77 20 412 14 495 -8z m-6541 -71 c-2 -13 -10 -37 -16 -52
l-12 -28 -4 28 c-2 16 4 39 13 53 20 31 25 30 19 -1z m4139 -195 c31 -29 57
-56 57 -59 0 -3 -25 -23 -56 -43 l-56 -37 -45 47 c-25 26 -68 70 -95 99 -56
57 -57 53 12 105 l35 27 45 -43 c25 -23 71 -66 103 -96z m-230 -88 l87 -87
-93 -49 c-215 -115 -349 -213 -408 -301 -17 -25 -36 -39 -64 -46 -63 -17 -331
-108 -380 -129 -25 -11 -45 -16 -45 -12 0 7 54 148 87 225 26 62 69 90 204
136 135 47 213 88 280 152 112 106 222 197 239 198 3 1 45 -38 93 -87z m2552
55 c22 -8 60 -24 85 -35 25 -11 81 -36 125 -55 44 -19 132 -59 195 -89 119
-57 303 -130 360 -143 3 -1 25 -7 50 -14 44 -13 57 -16 103 -26 96 -21 131
-25 226 -30 91 -5 181 -24 234 -51 63 -32 212 -163 200 -175 -5 -4 -28 -9 -53
-12 -90 -9 -207 -49 -293 -99 -58 -34 -68 -34 -93 -6 -30 34 -143 103 -214
131 -85 34 -142 46 -238 52 -303 18 -348 26 -536 94 -137 49 -136 48 -121 104
l8 28 -79 -2 c-156 -4 -448 -52 -978 -159 -82 -16 -151 -30 -154 -30 -3 0 8
10 25 23 16 12 61 50 98 85 71 65 126 96 350 192 66 29 185 86 265 128 189 97
236 113 325 108 39 -2 88 -11 110 -19z m4167 -129 c19 -36 68 -191 68 -213 0
-13 -16 -21 -57 -29 -10 -3 -71 -18 -135 -34 -105 -26 -117 -28 -123 -13 -18
43 -65 186 -65 197 0 7 33 25 73 39 39 15 101 40 137 56 36 15 70 28 75 28 6
1 18 -14 27 -31z m-6250 -77 c32 -30 58 -57 58 -60 0 -9 -115 -81 -127 -81 -6
0 -13 4 -15 9 -1 5 -29 37 -61 70 l-57 59 47 39 c27 21 50 42 52 46 4 9 22 -5
103 -82z m-187 -116 l79 -74 -34 -48 c-18 -26 -77 -104 -129 -173 -96 -125
-167 -229 -214 -311 -13 -24 -41 -73 -62 -109 -77 -135 -143 -277 -160 -345
-18 -73 -25 -205 -15 -306 3 -32 2 -59 -2 -59 -4 0 -33 10 -65 21 -71 27 -140
71 -173 112 -33 42 -30 98 16 258 42 148 37 129 67 259 13 58 30 143 36 190
39 277 92 359 336 524 74 50 223 136 235 135 3 0 41 -33 85 -74z m6024 -45
c17 -52 31 -98 31 -101 0 -8 -199 -73 -205 -67 -9 9 -55 202 -49 207 12 12
179 68 185 62 4 -3 21 -49 38 -101z m-365 -125 c14 -57 26 -109 26 -114 0 -6
-20 -22 -44 -36 -39 -23 -76 -55 -64 -55 3 0 31 9 63 20 46 16 60 17 67 8 12
-21 95 -259 111 -318 7 -30 13 -75 13 -100 l-1 -44 -67 -21 c-38 -11 -68 -23
-68 -26 0 -8 30 -16 98 -25 29 -4 54 -10 56 -13 4 -6 9 -39 22 -136 3 -22 7
-52 10 -67 4 -25 -6 -31 -212 -143 -119 -64 -218 -115 -220 -112 -4 4 -5 62
-1 337 1 78 -10 279 -17 317 -4 19 -8 66 -21 253 -3 36 -7 99 -11 140 -11 131
-11 139 -5 148 6 9 206 89 227 91 6 1 23 -46 38 -104z m884 68 c21 -31 52
-106 52 -127 0 -17 -298 -142 -309 -130 -5 5 -24 50 -43 100 l-35 91 146 46
c80 25 151 46 158 46 6 1 20 -11 31 -26z m-1274 -120 c3 -10 8 -61 11 -113 4
-52 8 -115 11 -140 2 -25 6 -88 9 -140 3 -52 8 -126 12 -165 3 -38 6 -185 8
-325 1 -140 5 -269 9 -286 6 -32 5 -32 -87 -77 -50 -25 -105 -49 -121 -53 -25
-6 -27 -4 -22 12 15 49 25 160 42 454 8 158 4 351 -10 429 -16 85 -16 85 9
126 19 33 85 186 85 198 0 2 -32 3 -71 2 -39 0 -75 3 -80 6 -9 5 30 26 136 70
52 22 53 22 59 2z m847 -91 l36 -97 -54 -19 c-30 -10 -53 -19 -51 -21 2 -2 26
-6 53 -9 71 -9 82 -14 88 -36 6 -23 -2 -28 -79 -55 -28 -10 -62 -27 -75 -37
-24 -19 -23 -19 76 -13 55 4 103 9 106 11 11 6 25 -17 54 -86 15 -36 34 -79
41 -96 l13 -30 -167 1 -166 1 -13 42 c-6 23 -14 55 -17 70 -2 15 -25 112 -50
217 -24 104 -43 192 -40 195 8 8 167 58 189 59 16 1 26 -17 56 -97z m-3752 38
c200 -71 300 -86 456 -69 227 26 361 -2 502 -103 30 -22 50 -43 47 -51 -3 -6
-24 -27 -47 -45 -37 -30 -95 -83 -219 -200 l-36 -34 -54 40 c-133 100 -291
153 -453 153 -84 0 -111 -3 -235 -26 -104 -19 -330 -40 -330 -31 0 2 10 14 21
27 51 57 176 270 194 329 8 28 24 50 35 50 5 0 58 -18 119 -40z m4581 0 c0 -5
14 -16 30 -25 17 -9 30 -13 30 -11 0 3 13 1 28 -5 28 -10 78 -91 67 -109 -3
-4 -33 -8 -67 -9 -35 -1 -103 -3 -151 -4 l-89 -2 -23 55 c-28 65 -25 69 64 96
31 9 61 18 66 19 22 7 45 4 45 -5z m553 -12 c20 -31 77 -138 77 -143 0 -3 -74
-4 -164 -3 l-163 1 -31 62 -31 62 27 13 c15 7 47 15 72 17 25 3 46 6 47 7 1 1
36 3 77 5 69 2 76 0 89 -21z m486 9 c23 -2 26 -9 42 -87 21 -106 91 -369 209
-785 l91 -320 -1 -240 c-1 -216 -6 -335 -13 -340 -2 -3 -320 -107 -380 -125
-21 -7 -40 -10 -42 -8 -3 2 10 47 27 99 24 73 31 113 32 179 1 78 -10 224 -19
260 -2 8 -7 49 -10 91 -3 42 -7 85 -9 95 -2 11 -7 51 -10 89 -4 39 -9 78 -12
87 -3 11 9 34 33 60 84 94 80 85 37 104 -22 10 -47 20 -57 23 -15 5 -19 20
-21 91 -2 47 -6 95 -9 106 -16 63 -30 106 -82 244 -31 84 -53 155 -49 160 5 4
53 10 107 12 88 5 118 11 106 22 -6 6 -88 15 -159 17 -36 1 -71 4 -78 7 -11 4
-47 71 -90 164 -3 6 239 2 357 -5z m-6145 -99 c-19 -33 -92 -136 -115 -163
-80 -92 -82 -93 -139 -100 -104 -11 -310 -71 -430 -124 -110 -49 -180 -129
-201 -229 -26 -130 -70 -291 -93 -348 -44 -108 -39 -174 18 -234 64 -68 199
-158 329 -219 68 -33 246 -97 289 -105 12 -2 43 -9 68 -16 25 -7 56 -14 70
-16 14 -3 50 -9 80 -14 97 -16 162 -21 290 -21 142 -1 231 20 376 86 130 60
266 112 366 141 130 37 193 71 401 218 153 107 187 160 202 321 3 33 8 86 11
117 6 57 6 58 -25 75 -18 10 -46 26 -64 37 l-31 18 70 65 c38 36 100 92 138
126 l70 60 14 -39 c106 -296 142 -413 142 -465 0 -101 -49 -226 -130 -334 -21
-27 -59 -83 -84 -124 -75 -116 -112 -143 -262 -187 -98 -28 -143 -46 -379
-153 -93 -43 -235 -104 -315 -136 -80 -31 -158 -63 -175 -70 -16 -8 -50 -21
-75 -30 -25 -10 -60 -24 -77 -31 -84 -37 -265 -68 -393 -67 -80 0 -248 15
-290 25 -25 6 -97 37 -160 68 -63 31 -166 77 -228 101 -159 61 -199 96 -345
299 -341 475 -396 561 -397 612 0 46 111 191 195 253 73 54 117 94 191 176 77
85 116 112 338 229 55 28 117 63 137 76 33 21 73 33 154 50 47 9 72 14 98 19
15 3 37 7 50 10 109 24 267 54 290 54 20 1 26 -3 21 -11z m4827 -39 c4 -18 7
-35 5 -36 -1 -1 -35 -5 -76 -8 -41 -3 -91 -7 -110 -10 -91 -11 -144 -16 -139
-11 3 3 45 17 93 31 48 14 113 36 144 50 31 13 61 23 67 21 5 -1 13 -18 16
-37z m-6313 -361 c-129 -178 -260 -360 -292 -404 -31 -45 -73 -96 -92 -115
l-34 -33 4 64 c9 118 17 142 123 351 70 139 92 174 136 214 47 43 377 256 386
249 2 -2 -102 -148 -231 -326z m-4712 247 c-14 -31 -47 -127 -72 -213 -25 -86
-47 -158 -49 -160 -2 -2 -7 17 -10 42 -15 95 19 205 101 326 26 39 49 68 52
66 2 -3 -7 -30 -22 -61z m11962 30 c18 -20 73 -177 78 -221 3 -25 17 -85 31
-133 29 -96 52 -194 47 -200 -2 -2 -32 2 -66 9 -35 7 -74 14 -87 17 -64 11
-152 31 -155 34 -13 15 -167 481 -162 487 16 16 301 22 314 7z m-454 -28 c13
-19 149 -387 158 -427 3 -16 -15 -19 -55 -9 -15 4 -51 11 -80 14 -79 10 -178
32 -186 41 -15 17 -149 364 -143 368 12 7 86 16 182 21 52 4 97 8 99 11 7 7
10 5 25 -19z m-6244 -25 c0 -4 -15 -16 -32 -26 -18 -11 -50 -32 -70 -48 -44
-34 -46 -32 -17 16 15 27 32 39 67 50 26 7 48 14 50 15 1 1 2 -3 2 -7z m5841
-62 c15 -36 35 -81 43 -101 9 -20 27 -69 41 -108 l24 -73 -62 7 c-34 4 -64 8
-67 10 -3 2 -39 7 -80 10 -41 4 -84 9 -95 10 -11 2 -29 4 -40 4 -16 1 -26 16
-44 69 -13 37 -37 95 -53 130 -34 75 -34 82 -5 83 12 0 33 2 47 4 14 2 61 6
105 10 43 3 80 7 82 8 1 2 19 2 40 2 36 0 38 -1 64 -65z m-2623 -33 c17 -34
36 -85 42 -112 12 -53 15 -189 5 -206 -4 -5 -8 -85 -10 -177 -3 -139 0 -180
16 -242 24 -96 12 -179 -47 -308 -13 -29 -37 -87 -54 -130 -16 -42 -43 -94
-60 -114 -59 -71 -513 -383 -745 -512 -11 -6 -93 -55 -183 -109 -136 -81 -187
-106 -310 -148 -81 -28 -154 -52 -162 -54 -8 -2 -80 -24 -160 -49 -80 -26
-156 -49 -170 -51 -105 -21 -261 -26 -380 -12 -36 4 -90 10 -120 12 -56 6
-191 23 -226 29 -10 2 -41 7 -67 10 -27 4 -59 9 -70 12 -12 2 -83 15 -157 29
-183 33 -183 33 -281 56 -118 27 -201 71 -460 245 -253 169 -323 229 -379 323
-51 86 -64 124 -110 333 l-39 173 42 34 c68 56 135 131 190 213 29 43 55 77
59 78 4 0 14 -15 22 -32 16 -39 48 -86 266 -397 251 -358 291 -394 522 -485
79 -31 174 -74 213 -96 117 -69 173 -84 370 -96 288 -17 458 12 709 122 43 19
167 66 275 104 108 37 232 85 276 105 112 52 213 90 319 121 181 53 234 96
368 299 154 233 159 252 161 610 1 78 -3 100 -31 167 -17 42 -55 117 -85 167
l-54 90 26 10 c53 22 169 41 291 47 69 4 127 8 128 10 12 10 34 -15 60 -69z
m434 64 c16 -1 42 -56 33 -71 -3 -5 -50 -41 -106 -81 -55 -39 -106 -77 -112
-83 -7 -7 -32 -30 -57 -53 l-45 -41 -1 52 c-1 36 -14 85 -46 164 -25 61 -44
113 -42 114 2 3 340 2 376 -1z m-5512 -41 c0 -19 -48 -136 -87 -215 -63 -125
-85 -204 -88 -325 -2 -91 1 -116 24 -187 39 -121 125 -229 232 -294 74 -44 78
-50 89 -124 15 -107 20 -170 20 -295 0 -136 -4 -170 -37 -315 -51 -220 -26
-353 109 -573 86 -141 144 -208 307 -354 131 -118 219 -207 318 -323 142 -167
268 -260 435 -326 314 -122 460 -174 528 -188 92 -19 98 -20 173 -26 165 -13
237 -20 287 -30 14 -3 39 -8 55 -11 17 -3 57 -11 90 -19 74 -17 225 -33 370
-39 147 -7 225 -18 360 -52 51 -13 109 -18 215 -18 125 0 159 4 245 26 93 25
163 39 260 54 69 10 209 52 279 84 37 16 71 30 75 30 3 0 22 -26 40 -57 19
-32 53 -87 76 -123 23 -36 67 -105 98 -153 32 -48 57 -94 57 -102 0 -25 -189
-110 -365 -163 -110 -34 -317 -80 -480 -108 -16 -2 -37 -7 -45 -9 -8 -2 -28
-7 -45 -9 -16 -3 -93 -21 -170 -40 l-140 -35 -234 1 c-314 1 -347 8 -591 118
-170 77 -300 119 -441 144 -58 10 -569 160 -598 175 -18 10 -23 24 -35 86 -11
58 -58 282 -62 298 -3 9 -9 17 -13 17 -9 0 -8 -44 4 -238 5 -93 4 -113 -7
-106 -22 13 -82 58 -103 77 -86 80 -309 216 -434 267 -231 94 -361 184 -487
335 -154 185 -323 419 -393 545 -103 181 -141 300 -206 640 -9 47 -19 92 -21
100 -41 170 -43 187 -38 525 3 280 4 569 2 975 0 47 1 117 2 157 l3 72 76 32
c94 39 273 108 284 109 4 0 7 -4 7 -10z m3750 -66 c55 -16 194 -84 218 -108
11 -11 -6 -30 -97 -108 l-111 -95 -57 28 c-100 48 -164 59 -303 55 -72 -3
-146 -11 -175 -20 -153 -47 -196 -56 -255 -57 -88 -2 -183 11 -193 25 -11 15
-2 104 14 138 l12 28 126 0 c165 0 239 13 379 66 79 29 160 51 227 60 28 3 51
7 53 9 7 6 113 -7 162 -21z m2242 -11 c6 -45 1 -335 -6 -443 -11 -155 -17
-225 -21 -240 -2 -8 -6 -35 -10 -60 -3 -25 -7 -54 -9 -65 -3 -11 -5 -25 -5
-32 -1 -14 -109 -10 -181 6 -53 12 -120 38 -120 48 0 3 15 34 34 67 30 54 57
122 73 181 3 11 7 102 8 203 1 101 6 187 11 191 5 4 41 32 79 63 39 31 83 70
99 87 17 17 33 31 37 31 4 0 9 -17 11 -37z m-6463 -403 c17 -112 19 -158 15
-440 -5 -328 -7 -384 -19 -640 -8 -152 -7 -159 30 -360 58 -320 81 -412 130
-535 75 -188 163 -328 360 -577 49 -62 127 -167 173 -233 47 -66 94 -131 106
-144 55 -61 173 -131 396 -235 86 -40 223 -124 275 -169 64 -55 191 -141 260
-178 44 -23 81 -43 82 -43 2 -2 14 -105 28 -256 2 -19 7 -63 10 -97 l6 -62
-38 6 c-53 7 -195 78 -236 117 -35 32 -41 50 -52 138 -3 26 -9 58 -14 70 l-9
23 -6 -25 c-8 -33 -14 -71 -15 -93 -2 -45 -21 -36 -366 179 -192 120 -269 163
-355 199 -36 15 -80 34 -98 42 -64 30 -237 274 -385 544 -47 85 -100 180 -120
210 -56 89 -68 118 -92 225 -28 122 -66 249 -134 444 -28 80 -55 174 -60 210
-18 121 -25 177 -36 285 -4 39 -8 81 -10 95 -2 14 -7 57 -10 95 -9 94 -29 184
-59 274 -14 41 -29 95 -33 120 -10 60 -10 247 1 391 10 139 12 181 21 425 4
105 10 193 13 197 4 4 50 25 102 47 l95 40 12 -82 c6 -45 21 -138 32 -207z
m2935 233 c-5 -21 -8 -50 -7 -65 1 -25 -4 -28 -43 -34 -93 -14 -133 -63 -185
-230 -49 -157 -41 -223 35 -291 90 -83 241 -134 391 -134 50 1 99 3 111 5 21
4 133 14 239 21 336 22 429 40 638 118 179 67 208 88 236 162 38 100 58 129
143 205 45 41 96 87 112 103 24 23 31 26 45 15 40 -32 40 -33 26 -89 -8 -30
-20 -81 -26 -113 -21 -115 -51 -153 -217 -280 -130 -98 -197 -134 -367 -194
-151 -54 -187 -69 -282 -112 -197 -91 -370 -105 -688 -56 -213 33 -443 119
-596 224 -120 82 -149 114 -149 165 0 52 161 452 197 489 21 22 59 39 153 68
160 50 190 58 218 59 21 1 22 -2 16 -36z m4830 -13 c-21 -18 -325 -167 -329
-160 -2 4 -7 41 -11 83 l-6 76 83 3 c184 6 271 6 263 -2z m-1648 -182 c-5
-153 -11 -182 -68 -291 -39 -75 -44 -74 -98 13 -31 50 -35 62 -35 131 0 67 3
81 30 125 24 38 155 164 172 164 2 0 2 -64 -1 -142z m-6491 45 c-7 -113 -15
-215 -20 -275 -7 -77 -13 -156 -21 -253 -3 -44 -10 -114 -13 -155 -11 -112 -4
-197 23 -275 28 -79 51 -163 60 -215 3 -19 8 -44 10 -55 5 -28 14 -99 21 -170
10 -101 15 -149 20 -175 2 -14 7 -45 10 -70 3 -25 7 -56 10 -70 3 -14 8 -41
11 -60 16 -102 49 -239 139 -585 80 -307 96 -353 148 -447 33 -58 201 -306
216 -318 4 -3 28 -32 55 -64 41 -51 110 -129 216 -245 32 -35 136 -91 169 -91
25 0 244 -135 534 -328 60 -40 110 -72 112 -72 12 0 97 -65 114 -87 18 -22 20
-38 19 -124 -1 -54 -5 -99 -9 -99 -5 0 -25 12 -46 26 -55 37 -170 90 -238 109
-106 30 -178 56 -262 96 -98 46 -140 74 -293 189 -63 47 -169 125 -235 172
-111 80 -125 94 -190 188 -38 56 -74 107 -80 113 -32 39 -163 234 -193 287
-43 76 -140 324 -211 537 -90 272 -168 472 -275 710 -80 179 -130 428 -129
643 0 99 8 153 43 285 15 61 32 130 36 155 7 46 7 179 0 215 -24 117 -26 105
92 460 15 45 23 53 77 82 33 18 65 33 72 33 9 0 11 -19 8 -67z m4470 3 c28 -9
56 -20 62 -24 15 -9 -75 -79 -169 -132 l-58 -32 -257 4 -258 3 -39 30 -40 30
85 6 c106 8 186 28 285 74 44 20 102 43 129 50 62 17 193 12 260 -9z m-1135
-127 c19 -62 96 -187 138 -225 52 -47 150 -114 196 -135 25 -11 46 -22 46 -24
0 -3 -60 -17 -140 -33 -19 -3 -78 -6 -130 -6 -83 0 -103 3 -157 28 -93 42
-180 142 -169 194 1 9 18 49 36 87 17 39 41 89 51 113 19 43 44 60 87 58 20
-1 27 -10 42 -57z m4865 -162 c0 -139 -3 -163 -32 -272 -36 -137 -46 -197 -47
-304 l-1 -76 -104 -2 -103 -2 8 77 c4 42 8 127 7 187 0 102 -4 119 -42 233
-22 67 -41 129 -41 137 0 12 66 52 265 156 45 24 74 34 80 28 6 -6 10 -74 10
-162z m290 138 c11 -2 42 -7 68 -10 26 -3 71 -10 99 -15 28 -6 51 -10 52 -10
1 0 2 -8 3 -17 1 -10 11 -65 22 -123 12 -58 21 -112 21 -122 0 -9 -22 -30 -49
-46 -62 -39 -134 -113 -171 -177 -35 -62 -70 -174 -70 -226 l0 -39 -84 1 c-46
1 -89 5 -96 9 -21 13 -6 158 35 330 38 160 51 311 35 417 l-7 45 61 -7 c34 -3
70 -8 81 -10z m440 -70 c22 -3 54 -8 70 -11 17 -2 39 -6 50 -8 11 -3 41 -8 68
-12 26 -3 47 -10 47 -14 0 -8 -232 -120 -249 -120 -9 0 -23 54 -37 141 -4 24
-3 40 2 37 5 -4 27 -9 49 -13z m-4799 -18 c3 -2 -34 -5 -81 -6 -47 -1 -85 2
-85 6 0 9 158 9 166 0z m-5961 -117 c-2 -17 -13 -58 -25 -93 -12 -34 -23 -89
-23 -122 -2 -103 13 -307 27 -370 8 -33 17 -87 20 -120 8 -78 17 -144 22 -175
4 -23 4 -108 0 -240 -2 -75 12 -129 79 -305 115 -304 197 -485 238 -527 31
-31 200 -271 250 -354 65 -107 152 -280 192 -379 86 -219 150 -350 280 -575
85 -147 163 -289 241 -437 32 -60 150 -247 263 -418 156 -234 223 -326 275
-377 38 -38 73 -68 77 -68 4 0 14 -6 21 -13 7 -7 47 -35 88 -61 175 -113 328
-217 370 -252 25 -21 101 -94 170 -162 69 -68 143 -133 164 -144 22 -11 184
-82 361 -158 177 -76 349 -154 381 -174 70 -43 174 -95 200 -101 11 -2 48 -10
84 -19 36 -8 85 -18 110 -21 25 -3 99 -15 165 -26 222 -35 361 -43 498 -26 32
3 86 9 120 13 34 3 73 8 87 10 32 5 320 5 380 -1 147 -13 185 -18 285 -35 152
-26 186 -29 385 -35 96 -3 267 -8 380 -11 113 -3 232 -7 265 -9 88 -5 452 -5
510 0 28 2 111 6 185 9 290 12 383 36 675 176 225 108 322 146 399 157 22 3
46 11 53 19 8 7 30 16 51 20 159 28 219 46 272 84 l28 20 35 -53 c43 -65 75
-151 86 -229 9 -71 11 -69 -128 -129 -218 -94 -391 -137 -656 -164 -33 -3 -71
-8 -85 -10 -14 -2 -47 -6 -75 -10 -408 -48 -475 -66 -603 -154 -64 -44 -181
-81 -333 -106 -117 -18 -210 -25 -569 -40 -74 -3 -169 -7 -210 -10 -41 -2
-142 -7 -225 -10 -82 -4 -170 -9 -195 -11 -64 -5 -390 -5 -420 0 -14 3 -54 7
-90 11 -36 3 -76 8 -90 9 -79 11 -129 17 -255 32 -134 16 -141 18 -164 46 -41
52 -53 54 -366 73 -81 5 -125 15 -230 50 -111 37 -189 61 -230 71 -95 22 -408
99 -609 150 -283 71 -274 67 -566 235 -297 171 -472 322 -662 573 -296 391
-397 498 -533 567 -153 78 -269 195 -432 439 -177 264 -641 966 -644 975 -2 6
-25 48 -51 95 -25 47 -73 148 -106 225 -33 77 -80 184 -105 238 -44 97 -44 99
-31 143 11 37 11 51 -3 96 -8 29 -25 73 -38 98 -12 25 -38 77 -57 115 -43 86
-79 196 -108 335 -20 94 -69 271 -229 815 l-50 170 2 215 2 215 198 133 c109
72 205 132 212 132 10 0 13 -9 10 -30z m11424 -110 c11 -52 23 -111 25 -130 3
-19 10 -72 17 -118 16 -114 8 -164 -44 -268 -37 -73 -63 -142 -82 -220 -2 -5
-26 -15 -55 -22 -64 -15 -124 -16 -115 -2 7 11 13 173 19 524 l4 209 48 28
c27 16 72 46 99 67 28 22 53 36 56 33 4 -3 16 -49 28 -101z m-1840 -21 c38
-115 45 -213 27 -376 -10 -97 5 -90 -201 -98 -77 -3 -157 -8 -177 -11 -35 -5
-37 -3 -42 28 -16 106 -36 226 -40 243 -21 83 -25 100 -23 100 1 1 26 16 55
33 29 18 54 32 56 32 1 0 68 36 147 80 79 44 148 78 154 77 5 -2 25 -50 44
-108z m-1516 -218 c26 -18 47 -35 47 -40 0 -38 -60 -187 -160 -396 -170 -356
-209 -408 -425 -569 -127 -95 -209 -177 -299 -298 -84 -112 -130 -150 -256
-212 -269 -133 -524 -219 -710 -241 -30 -3 -107 -13 -170 -22 -63 -8 -122 -16
-130 -15 -8 0 -42 -7 -75 -14 -59 -13 -278 -14 -336 0 -24 5 -255 69 -364 100
-27 8 -108 31 -180 50 -71 20 -152 43 -180 51 -76 22 -214 53 -270 61 -27 3
-59 8 -69 10 -11 2 -59 6 -107 10 -49 3 -99 7 -112 8 -46 5 -112 48 -152 98
-56 70 -204 220 -305 308 -240 211 -345 351 -485 643 -88 184 -101 227 -112
355 l-6 72 34 1 c57 1 102 8 171 28 l67 18 15 -71 c9 -39 20 -102 26 -141 14
-89 52 -204 92 -275 72 -130 171 -227 363 -355 255 -170 431 -251 605 -280 19
-3 46 -7 60 -10 14 -2 43 -7 65 -10 22 -3 78 -12 125 -20 47 -8 108 -17 135
-21 28 -3 59 -8 70 -10 18 -4 68 -11 190 -29 22 -3 51 -8 65 -10 14 -3 48 -7
75 -11 28 -3 61 -7 75 -9 168 -25 375 -23 497 6 76 18 429 127 536 166 120 43
272 120 392 197 50 32 142 90 206 129 148 93 254 167 409 289 202 160 233 190
273 265 19 37 35 70 36 73 0 8 16 49 54 135 20 44 39 93 43 108 l7 29 61 -60
c33 -32 82 -74 109 -91z m2981 57 c-2 -46 -6 -135 -8 -198 -3 -63 -6 -162 -7
-218 -1 -57 -6 -122 -12 -144 l-10 -40 -51 6 c-70 9 -182 66 -237 120 -87 88
-109 170 -73 278 23 70 48 102 113 145 43 29 257 129 282 132 3 1 4 -36 3 -81z
m-2036 -30 c0 -7 8 -42 16 -78 29 -130 40 -304 41 -605 0 -192 -1 -203 -27
-276 -46 -131 -150 -345 -261 -539 -116 -202 -168 -268 -310 -387 -108 -91
-244 -224 -348 -342 -135 -154 -172 -184 -299 -245 -100 -48 -165 -101 -218
-178 -17 -25 -47 -59 -68 -77 l-36 -32 -31 28 c-61 57 -97 91 -241 227 l-147
140 47 24 c27 14 105 49 174 79 271 119 306 136 397 195 254 164 382 332 472
618 24 74 52 162 63 195 26 75 257 548 303 621 85 132 113 214 120 354 7 147
5 142 88 169 72 23 188 77 229 106 27 18 34 19 36 3z m-5936 -62 c22 -2 42 -6
44 -9 2 -2 7 -42 10 -88 10 -161 64 -337 181 -589 82 -176 133 -236 508 -598
105 -101 207 -205 228 -232 53 -69 117 -98 231 -105 254 -15 463 -63 1141
-260 134 -39 180 -45 325 -41 80 2 154 6 165 9 11 2 46 8 79 12 32 3 68 8 80
10 11 2 57 9 101 15 44 6 91 12 105 15 14 2 67 11 117 20 51 8 123 25 160 36
89 27 468 181 529 215 108 59 184 128 274 249 89 120 152 183 297 298 169 133
237 221 321 412 22 50 63 140 92 200 68 144 114 256 135 328 9 31 20 57 24 57
4 0 45 -8 92 -18 46 -11 120 -20 164 -21 71 -2 101 -12 90 -31 -1 -3 -6 -42
-9 -87 -11 -140 -38 -208 -151 -382 -36 -55 -65 -103 -65 -106 0 -2 -15 -29
-34 -58 -53 -83 -161 -312 -194 -412 -17 -49 -44 -134 -62 -188 -74 -235 -152
-343 -350 -492 -122 -91 -223 -142 -493 -250 l-218 -87 -17 23 c-9 13 -38 63
-64 111 -25 48 -62 109 -81 135 -40 55 -103 116 -95 93 3 -9 16 -52 28 -95 29
-103 48 -163 65 -200 8 -17 19 -44 25 -60 l11 -29 -23 19 c-13 11 -25 22 -28
25 -42 42 -171 150 -179 150 -22 0 -10 -22 42 -78 179 -194 169 -176 120 -200
-47 -23 -130 -46 -248 -68 -49 -9 -99 -18 -110 -20 -11 -2 -58 -11 -105 -20
-47 -9 -94 -18 -105 -21 -60 -15 -245 -10 -330 8 -162 34 -245 47 -355 54
-293 18 -260 14 -490 60 -92 19 -167 26 -295 30 -199 6 -196 5 -572 131 -291
97 -332 115 -408 174 -64 51 -579 580 -646 663 -69 86 -167 242 -197 314 -40
94 -46 193 -20 298 10 39 21 95 25 125 10 70 10 400 0 506 l-8 81 51 -13 c28
-7 70 -15 92 -18z m-1706 -183 c-4 -9 -9 -32 -12 -52 -2 -20 -7 -51 -10 -68
-13 -83 -2 -284 22 -408 2 -11 7 -33 9 -50 13 -71 52 -189 103 -305 113 -262
203 -495 282 -735 90 -272 204 -553 254 -627 17 -25 74 -91 126 -145 110 -115
117 -124 167 -200 84 -130 95 -139 343 -292 59 -36 144 -101 320 -244 52 -43
193 -116 434 -226 83 -38 205 -121 246 -167 16 -19 34 -53 40 -76 6 -24 19
-70 29 -103 l19 -60 1 68 c1 42 5 67 12 67 6 0 28 -13 48 -28 47 -37 153 -102
216 -134 114 -58 324 -128 430 -143 23 -3 52 -7 65 -10 13 -2 46 -7 74 -10 28
-3 67 -7 86 -10 19 -2 53 -7 75 -10 125 -16 334 -48 425 -66 58 -11 121 -22
140 -25 19 -3 38 -8 41 -10 3 -2 20 -6 37 -9 17 -3 81 -16 144 -29 62 -14 151
-30 198 -36 47 -6 95 -13 108 -15 147 -25 274 -22 387 10 102 28 213 45 315
49 58 3 119 7 135 11 17 3 95 39 175 79 182 92 307 143 318 130 5 -5 36 -61
70 -125 l61 -116 -67 -26 c-176 -68 -261 -93 -382 -112 -89 -15 -178 -40 -272
-77 -274 -107 -326 -122 -433 -122 -94 0 -240 9 -329 19 -21 3 -95 7 -164 10
-70 3 -138 7 -152 10 -14 2 -61 9 -106 15 -92 12 -95 13 -188 34 -37 9 -89 19
-115 22 -48 5 -88 11 -131 19 -14 2 -45 7 -70 10 -25 3 -52 8 -60 10 -8 3 -31
7 -50 9 -28 4 -210 31 -340 51 -14 2 -45 7 -70 10 -25 3 -52 8 -60 10 -8 2
-35 7 -60 10 -41 6 -288 83 -335 104 -11 6 -85 33 -165 61 -177 63 -211 82
-280 156 -144 152 -214 213 -370 319 -90 62 -272 194 -280 204 -3 4 -25 22
-50 41 -111 85 -359 298 -394 339 -89 103 -217 221 -306 283 -130 90 -185 137
-228 194 -20 27 -112 200 -204 384 -123 248 -178 370 -211 470 -43 129 -56
163 -106 274 -23 48 -172 437 -238 616 -36 98 -57 180 -69 265 -13 91 -11 117
11 128 130 71 253 208 319 355 18 40 35 60 22 25z m8134 -88 c14 -2 40 -4 58
-4 l33 -1 -7 -182 c-10 -263 -10 -494 -1 -558 19 -117 20 -113 -86 -325 -59
-119 -141 -264 -202 -357 -57 -86 -121 -189 -142 -229 -21 -39 -56 -88 -78
-109 -22 -20 -67 -61 -99 -91 -89 -81 -157 -151 -253 -257 -111 -125 -182
-191 -249 -233 -30 -19 -106 -72 -169 -118 l-116 -83 -72 55 c-95 72 -187 128
-187 113 0 -2 35 -32 78 -67 42 -35 88 -74 102 -86 14 -13 28 -23 32 -23 21 0
2 -23 -54 -67 -73 -55 -112 -93 -152 -145 l-28 -38 -87 60 c-80 55 -181 146
-215 195 -13 20 -9 25 74 94 110 92 133 107 216 137 89 32 178 83 237 135 27
23 93 99 147 169 90 116 193 235 329 380 47 51 171 217 197 265 6 11 39 67 74
125 138 230 274 527 296 645 2 11 8 43 13 70 5 28 7 160 4 298 l-5 248 144 -7
c79 -3 154 -8 168 -9z m800 -47 c16 -65 41 -117 87 -185 23 -33 40 -63 39 -65
-2 -1 -6 -28 -10 -58 -3 -30 -7 -64 -10 -75 -5 -29 -16 -95 -21 -135 -3 -19
-7 -44 -9 -56 -2 -12 -7 -45 -11 -75 -4 -30 -8 -56 -10 -59 -2 -3 -6 -25 -10
-49 -8 -51 -42 -165 -83 -277 -17 -44 -33 -96 -36 -115 -3 -19 -8 -43 -10 -55
-2 -12 -7 -45 -10 -75 -4 -30 -9 -76 -12 -104 -13 -115 -33 -194 -66 -260 -12
-22 -65 -102 -119 -177 -55 -76 -125 -177 -157 -225 -102 -155 -180 -254 -312
-393 -29 -30 -81 -92 -115 -137 -51 -67 -114 -142 -200 -237 -6 -6 -34 -39
-64 -73 l-53 -62 -90 77 c-50 42 -104 89 -121 103 l-31 26 39 53 c51 70 205
260 275 339 62 71 73 83 225 246 144 155 139 148 269 310 63 77 125 163 138
190 14 28 44 111 67 185 25 80 65 177 97 237 65 123 72 152 78 329 3 76 8 150
10 164 3 14 7 45 10 70 3 25 8 56 11 70 3 14 9 50 15 80 6 30 13 69 17 85 8
37 7 209 -1 326 l-6 88 27 3 c16 2 56 4 90 6 l62 3 11 -43z m-326 -35 c45
-178 55 -422 21 -553 -2 -8 -6 -37 -10 -65 -3 -27 -8 -61 -10 -75 -4 -31 -12
-97 -20 -175 -12 -114 -26 -151 -150 -401 -160 -324 -234 -426 -544 -754 -76
-80 -155 -165 -177 -190 -21 -24 -47 -54 -57 -65 -10 -11 -71 -87 -135 -169
-64 -82 -122 -155 -128 -163 -10 -12 -17 -10 -49 8 -20 12 -51 23 -68 25 l-32
4 48 -44 c26 -24 47 -48 47 -54 0 -12 -138 -137 -151 -137 -6 0 -68 59 -139
130 -129 130 -130 130 -108 147 12 9 34 19 48 22 53 12 336 239 526 422 33 33
127 120 210 196 157 144 202 192 272 292 88 125 224 423 305 666 39 118 51
246 24 269 -11 8 -14 34 -12 103 3 92 14 247 20 279 8 40 23 228 24 312 l1 37
113 0 113 0 18 -67z m-9700 -195 c23 -12 60 -28 84 -37 l43 -16 88 -265 c92
-276 141 -404 210 -554 23 -49 57 -135 77 -190 42 -115 95 -226 148 -306 37
-56 106 -191 106 -208 0 -18 81 -208 121 -281 58 -108 161 -260 205 -301 48
-46 102 -117 209 -275 155 -230 225 -317 385 -475 184 -182 416 -465 519 -632
39 -64 90 -135 112 -158 37 -38 152 -118 239 -167 19 -11 109 -64 200 -118
351 -207 472 -249 1005 -350 22 -5 47 -9 55 -10 8 -1 42 -7 75 -13 33 -6 76
-14 95 -17 19 -3 58 -10 85 -15 28 -5 64 -11 80 -14 17 -2 59 -9 95 -14 36 -6
90 -14 120 -17 30 -4 57 -8 60 -10 4 -2 78 -11 180 -21 19 -2 110 -4 201 -5
115 -2 193 -8 255 -21 136 -27 204 -33 394 -32 127 0 195 5 247 17 40 10 89
19 110 22 101 12 136 15 243 20 210 10 413 31 480 50 8 2 31 7 50 10 48 8 143
32 215 55 33 10 87 22 120 26 77 9 81 9 205 28 58 8 131 18 163 21 32 4 67 8
77 10 11 2 91 5 180 7 l160 2 50 -49 c27 -28 50 -55 50 -61 0 -6 -39 -25 -87
-43 -49 -19 -162 -69 -253 -113 -260 -126 -342 -152 -515 -163 -161 -11 -221
-15 -290 -22 -96 -10 -1324 -10 -1405 0 -36 4 -83 12 -105 17 -22 5 -65 11
-95 15 -30 3 -62 8 -70 10 -27 7 -233 18 -330 18 -97 0 -311 -13 -321 -18 -10
-7 -149 -17 -231 -18 -79 0 -197 8 -249 18 -13 3 -64 12 -113 20 -49 9 -110
26 -135 40 -25 13 -91 33 -146 45 -140 30 -161 38 -235 85 -36 23 -92 54 -125
70 -33 15 -67 31 -76 36 -9 4 -65 22 -124 39 -59 17 -136 44 -171 61 -36 16
-67 29 -71 29 -12 0 -108 51 -129 68 -12 10 -48 56 -81 103 -106 148 -257 278
-505 435 -256 161 -291 196 -520 520 -64 92 -108 160 -245 380 -7 10 -72 120
-144 244 -73 124 -176 298 -230 387 -70 118 -114 206 -159 320 -107 273 -236
504 -395 708 -123 158 -186 272 -259 467 -20 53 -38 123 -41 155 -2 32 -18 95
-34 140 -37 101 -44 141 -46 268 -2 141 -2 140 52 99 26 -19 64 -45 87 -56z
m11610 -45 c-15 -61 -67 -192 -188 -471 -159 -365 -164 -382 -164 -554 1 -220
-42 -340 -279 -778 -65 -119 -204 -382 -273 -515 -154 -297 -239 -434 -387
-621 -49 -61 -119 -152 -158 -202 -59 -76 -75 -91 -98 -92 -54 0 -99 -38 -172
-146 -61 -91 -139 -197 -166 -225 -22 -23 -96 -87 -226 -198 -29 -24 -56 -57
-62 -72 -10 -29 -42 -52 -149 -109 -37 -20 -66 -30 -70 -24 -4 5 -36 32 -72
59 -35 28 -73 58 -85 67 -11 9 -30 25 -43 35 l-23 18 58 34 c165 97 181 112
383 371 126 161 145 192 217 350 119 259 246 467 390 637 100 117 198 249 271
364 41 63 131 204 201 314 70 110 164 256 208 325 44 69 98 159 120 200 22 41
81 152 131 245 141 264 176 372 187 590 11 206 17 271 28 281 7 6 68 28 137
49 68 21 158 51 200 66 41 15 78 28 83 29 4 0 4 -12 1 -27z m-11024 -51 c0
-38 73 -248 151 -434 45 -106 134 -319 199 -473 72 -171 126 -316 139 -373 29
-121 34 -132 241 -542 163 -324 178 -343 405 -505 141 -101 183 -139 290 -260
38 -43 137 -135 220 -203 82 -68 159 -131 170 -140 11 -10 128 -107 260 -216
238 -197 326 -279 438 -409 72 -83 110 -105 267 -156 366 -117 486 -146 675
-167 67 -7 127 -15 198 -24 37 -6 89 -12 115 -15 26 -3 58 -8 72 -10 14 -2 61
-9 105 -15 79 -10 109 -14 190 -24 149 -19 184 -26 250 -47 66 -22 70 -23 135
-34 25 -4 54 -9 65 -11 22 -4 125 -12 260 -19 135 -7 276 -16 315 -20 62 -7
204 -6 245 0 56 9 140 38 248 86 140 62 280 104 447 134 25 5 324 96 370 113
22 8 28 4 65 -52 22 -33 64 -85 92 -116 l53 -55 -55 124 c-30 69 -55 126 -55
127 0 2 55 20 116 39 6 2 51 -42 100 -98 49 -56 101 -115 116 -132 48 -53 77
-89 75 -91 -1 -2 -41 -5 -87 -9 -47 -3 -112 -10 -145 -15 -33 -5 -78 -12 -100
-15 -22 -3 -65 -10 -95 -15 -76 -13 -108 -18 -160 -25 -72 -10 -157 -33 -270
-74 -244 -89 -346 -106 -680 -116 -113 -3 -225 -8 -250 -10 -55 -5 -186 -5
-260 0 -30 2 -104 6 -163 10 -60 4 -116 8 -126 10 -9 2 -44 6 -76 10 -33 4
-69 10 -80 12 -11 3 -141 6 -290 7 -148 1 -274 4 -280 8 -5 3 -37 9 -70 12
-33 4 -67 9 -75 11 -8 2 -37 6 -65 10 -46 5 -257 41 -385 64 -30 6 -68 13 -85
16 -16 2 -41 7 -55 10 -14 3 -68 12 -120 21 -189 32 -400 95 -538 161 -32 15
-131 73 -220 128 -89 55 -170 105 -180 110 -243 140 -294 181 -385 310 -31 44
-88 118 -126 165 -39 47 -107 130 -152 185 -95 117 -162 183 -268 264 -160
123 -285 266 -397 453 -37 62 -98 158 -136 213 -37 55 -80 118 -95 140 -50 76
-181 341 -228 460 -59 151 -79 191 -133 263 -77 101 -119 183 -197 382 -42
107 -81 204 -85 215 -9 19 -76 196 -104 275 -7 19 -34 89 -58 155 -25 66 -53
143 -61 172 l-16 52 95 -3 c52 -1 114 1 137 5 74 12 87 10 87 -9z m9818 -88
c42 -18 101 -36 132 -40 30 -3 58 -8 62 -10 8 -5 -39 -137 -89 -249 -44 -100
-88 -248 -113 -385 -43 -236 -86 -348 -222 -579 -27 -46 -76 -137 -109 -203
-33 -65 -106 -190 -163 -277 -97 -146 -145 -211 -276 -366 -29 -34 -75 -110
-107 -175 -30 -63 -76 -142 -101 -175 -41 -53 -128 -161 -142 -175 -3 -3 -23
-27 -44 -55 -22 -27 -62 -72 -88 -99 -26 -27 -48 -53 -48 -59 0 -13 -124 -158
-192 -224 -29 -29 -81 -70 -115 -92 l-62 -40 -88 90 c-48 49 -89 93 -91 97 -1
5 25 33 59 63 92 80 109 97 199 209 45 55 86 100 90 98 5 -2 28 -21 52 -44 69
-64 74 -62 20 11 -29 37 -49 73 -45 79 8 13 225 289 233 296 3 3 47 57 98 120
50 63 121 141 157 173 83 74 145 152 280 352 60 88 137 198 171 245 97 133
144 248 159 390 3 30 8 80 11 110 9 83 39 213 77 330 19 58 44 150 56 205 53
248 93 431 97 443 3 10 12 8 35 -9 18 -12 66 -37 107 -55z m608 -56 c-3 -24
-8 -88 -11 -143 -15 -262 -25 -294 -210 -665 -109 -220 -381 -694 -539 -940
-13 -19 -49 -78 -81 -130 -50 -82 -161 -229 -222 -295 -37 -41 -136 -178 -199
-277 -57 -90 -112 -197 -247 -478 -82 -172 -266 -390 -397 -472 -30 -19 -94
-56 -142 -82 l-86 -47 -39 33 c-21 18 -51 45 -68 60 -16 14 -41 35 -55 46
l-25 21 40 40 c37 39 60 50 67 33 2 -4 20 -21 40 -36 32 -24 39 -26 44 -12 3
9 -6 35 -20 60 -14 25 -26 47 -26 49 0 2 17 16 38 30 74 50 224 210 373 397
46 58 92 114 101 125 177 210 203 247 289 403 40 71 75 117 166 217 120 129
261 364 309 512 16 48 86 201 155 339 142 280 183 383 228 562 17 67 44 155
60 195 92 228 183 440 196 455 2 2 27 6 57 9 29 3 84 11 123 18 38 7 74 13 78
14 4 1 6 -18 3 -41z m1106 -115 c10 -82 -28 -194 -101 -300 -54 -79 -62 -66
-16 24 9 17 27 71 41 120 52 183 58 202 65 198 4 -3 9 -22 11 -42z m-277
-1389 c-23 -36 -28 -25 -14 32 12 47 13 48 22 21 7 -21 5 -34 -8 -53z m-4755
-464 c0 -4 -63 -34 -121 -58 -6 -3 -79 140 -79 154 0 2 -20 45 -45 95 -25 51
-45 95 -45 98 0 3 65 -59 145 -139 80 -80 145 -147 145 -150z m-7275 220 c20
-38 36 -80 31 -80 -7 0 -43 63 -51 88 -9 32 2 27 20 -8z m7450 -392 c61 -66
143 -176 174 -236 11 -22 8 -24 -75 -63 -48 -22 -108 -54 -133 -72 -25 -18
-51 -36 -58 -40 -8 -5 -24 11 -44 42 -18 27 -36 48 -40 45 -4 -2 1 -29 11 -59
l19 -55 -57 -33 c-31 -18 -119 -64 -196 -101 -110 -54 -140 -65 -147 -55 -5 8
-19 29 -30 47 -29 45 -35 33 -13 -24 20 -53 19 -55 -58 -95 l-37 -19 -42 73
c-23 39 -50 88 -62 107 -100 174 -157 278 -157 287 0 5 13 10 30 11 47 4 247
57 337 91 111 41 245 99 383 165 63 30 118 55 122 55 3 1 36 -32 73 -71z
m-3220 -42 c99 -20 191 -39 205 -41 14 -3 41 -8 60 -11 19 -3 42 -7 50 -9 8
-2 35 -7 60 -10 83 -11 222 -52 302 -89 18 -8 73 -33 122 -55 97 -45 257 -97
324 -105 24 -3 143 -8 265 -12 229 -6 341 4 472 41 43 12 247 56 327 70 30 6
34 0 110 -145 25 -47 75 -142 112 -211 36 -69 66 -131 66 -137 0 -18 -112 -89
-159 -102 -23 -6 -61 -13 -84 -15 -68 -6 -339 -18 -377 -17 -19 1 -152 4 -295
6 -225 5 -268 8 -318 25 -66 23 -198 61 -234 67 -14 3 -53 11 -87 19 -67 15
-81 18 -211 40 -49 9 -106 21 -125 27 -36 11 -328 132 -410 170 -96 44 -257
107 -303 118 -26 7 -49 16 -52 19 -7 12 -15 90 -31 301 -3 47 -8 88 -10 92 -5
8 9 6 221 -36z m3987 7 c62 -53 228 -216 228 -224 0 -6 -69 -59 -106 -82 -12
-7 -89 59 -201 171 -29 29 -53 49 -53 44 0 -5 42 -65 94 -132 l94 -123 -49
-34 c-27 -18 -52 -33 -56 -33 -8 0 -35 23 -176 152 -87 81 -88 81 -65 96 13 9
25 18 28 22 10 11 94 70 101 70 3 0 29 23 56 50 28 28 55 50 62 50 6 0 26 -12
43 -27z m616 -205 c42 -35 88 -73 103 -86 14 -12 33 -28 42 -35 14 -11 10 -19
-33 -74 -38 -48 -59 -65 -89 -73 -29 -8 -38 -15 -35 -28 6 -24 -10 -40 -104
-105 l-83 -57 -48 53 c-27 28 -63 68 -80 87 -45 48 -85 100 -80 103 2 2 29 24
60 50 l56 47 39 -43 c22 -23 52 -58 67 -77 24 -31 27 -32 21 -10 -4 14 -27 49
-51 79 l-43 53 87 89 c48 49 89 89 91 89 2 0 38 -28 80 -62z m-1093 -257 l20
-118 -32 -22 c-18 -11 -47 -21 -64 -21 -19 0 -53 -13 -81 -31 -27 -17 -50 -30
-52 -28 -1 2 -28 41 -58 86 -62 91 -62 94 11 123 21 8 38 25 46 43 10 25 27
35 96 62 46 17 86 30 89 27 3 -2 14 -57 25 -121z m-3837 -17 c88 -20 88 -20
98 -104 3 -19 13 -82 23 -140 l19 -105 1 159 1 159 33 -7 c17 -4 115 -43 217
-87 232 -102 463 -188 622 -233 68 -19 237 -67 377 -107 140 -39 291 -77 335
-84 76 -12 294 -13 391 -1 22 2 69 8 105 11 36 4 72 9 81 10 9 2 40 6 70 10
30 4 56 8 59 10 3 2 29 6 59 10 30 4 63 9 75 11 12 2 35 7 51 9 54 10 195 84
207 110 15 32 47 39 73 15 30 -28 36 -25 23 11 -12 35 -16 30 47 62 l50 25 61
-139 62 -138 -37 -17 c-20 -10 -40 -19 -46 -20 -5 -2 -86 -35 -180 -74 -203
-85 -245 -97 -355 -106 -47 -3 -101 -8 -120 -9 -271 -26 -416 -25 -580 0 -14
2 -43 6 -65 10 -23 3 -50 7 -60 9 -11 2 -40 7 -65 11 -25 4 -101 20 -170 36
-151 34 -143 32 -310 63 -143 26 -175 31 -255 41 -27 3 -63 8 -80 10 -16 2
-64 7 -105 10 -317 28 -681 180 -890 373 l-65 59 -1 120 -1 119 82 -42 c46
-24 118 -50 163 -60z m6913 -33 c-23 -34 -46 -61 -51 -61 -5 0 11 29 36 66 26
36 48 63 51 60 3 -2 -14 -32 -36 -65z m-2354 -76 c49 -61 93 -116 97 -123 7
-11 -70 -120 -87 -121 -4 -1 -52 67 -107 150 l-100 151 42 29 c24 15 48 27 54
26 6 -1 52 -52 101 -112z m-1044 -54 l58 -92 -43 -40 c-85 -78 -209 -165 -271
-188 -25 -10 -28 -7 -101 121 -42 72 -74 133 -72 135 10 11 352 161 361 159 5
-1 36 -44 68 -95z m406 -118 c7 -21 19 -51 26 -68 25 -57 85 -215 85 -223 0
-5 -31 -15 -69 -23 l-69 -15 -91 132 c-50 74 -91 135 -91 138 0 16 150 92 190
95 4 1 12 -16 19 -36z m-192 -190 c37 -54 80 -116 95 -138 l28 -40 -63 -29
c-34 -16 -92 -41 -129 -57 l-68 -28 -46 42 c-26 23 -61 56 -78 72 -18 17 -48
44 -68 62 l-37 32 52 32 c29 17 64 40 79 50 15 11 29 19 32 19 2 0 30 18 62
40 33 22 62 40 66 40 4 0 38 -44 75 -97z m1124 8 l84 -78 -42 -40 -41 -40 -91
69 -91 69 41 49 c23 28 45 50 49 50 4 0 45 -35 91 -79z m-1527 -145 c14 -19
31 -40 38 -48 65 -69 119 -141 112 -147 -5 -5 -24 -13 -42 -19 -39 -13 -41
-10 -100 118 -60 129 -63 167 -8 96z m-6736 -162 c-9 -8 -58 41 -58 58 0 7 14
-2 32 -19 18 -18 29 -35 26 -39z m7565 -34 c4 0 5 5 2 10 -3 6 -2 10 3 10 9 0
156 -240 150 -245 -2 -1 -33 -19 -70 -38 l-68 -36 -11 22 c-7 12 -28 51 -47
87 -33 62 -33 64 -8 41 14 -14 26 -19 26 -13 0 14 -53 104 -96 163 -19 26 -34
51 -34 56 0 5 21 16 48 25 l47 15 25 -49 c13 -26 28 -48 33 -48z m-193 16 c76
-122 190 -316 190 -322 0 -10 -168 -100 -173 -93 -7 9 -204 237 -236 271 -70
77 -74 69 62 121 67 25 127 46 132 47 6 0 17 -11 25 -24z m509 -480 c39 -60
71 -112 71 -116 0 -26 -170 -51 -196 -29 -10 8 -17 7 -28 -4 -15 -15 -132 -40
-147 -32 -4 3 -26 32 -48 65 l-40 59 58 35 c32 20 70 36 85 36 15 0 25 5 24
12 -3 12 129 90 144 85 4 -1 39 -51 77 -111z m-6890 -289 c126 -129 134 -148
36 -92 -75 44 -147 128 -200 234 -34 68 -31 83 6 30 17 -24 88 -102 158 -172z
m6701 -1013 c-71 -53 -103 -62 -262 -71 -120 -6 -173 1 -133 17 11 5 43 9 70
9 46 1 123 19 235 53 25 8 63 15 85 17 l40 2 -35 -27z m-3007 -33 c11 -11
-106 -1 -118 10 -6 6 14 7 50 4 33 -4 64 -10 68 -14z m1682 -401 c-8 -14 -57
-37 -72 -34 -7 1 -19 3 -25 4 -10 1 73 34 100 39 2 1 0 -4 -3 -9z"/>
</g>
</svg>
